<svg xmlns="http://www.w3.org/2000/svg" width="375" viewBox="0 0 375 225" height="225" version="1.0"><defs><clipPath id="a"><path d="M 54 81 L 126.160156 81 L 126.160156 151.4375 L 54 151.4375 Z M 54 81"/></clipPath><clipPath id="b"><path d="M 50.410156 52.4375 L 108 52.4375 L 108 132 L 50.410156 132 Z M 50.410156 52.4375"/></clipPath></defs><g clip-path="url(#a)"><path fill="#128398" d="M 54.996094 132.261719 C 70.921875 107.878906 99.410156 120.296875 115.964844 98.789062 C 107.976562 126.25 73.308594 115.46875 56.578125 138.039062 C 59.765625 142.4375 64.078125 146.0625 68.996094 148.421875 C 70.691406 149.226562 72.445312 149.886719 74.285156 150.375 C 74.3125 150.375 74.339844 150.402344 74.371094 150.402344 C 76.929688 151.09375 79.601562 151.46875 82.332031 151.46875 C 87.796875 151.46875 93 150 97.570312 147.441406 C 104.4375 143.589844 109.84375 137.234375 112.460938 129.703125 C 97.195312 132.835938 82.476562 122.886719 56.605469 138.039062 C 85.839844 113.398438 125.566406 153.308594 126.027344 81.914062 C 116.828125 113.886719 63.53125 73.285156 54.996094 132.261719 Z M 54.996094 132.261719" fill-rule="evenodd"/></g><path fill="#AFD93C" d="M 56.605469 138.039062 C 80.953125 125.417969 96.101562 134.675781 112.460938 129.703125 C 113.207031 127.542969 113.722656 125.300781 113.984375 123 C 113.121094 123.664062 112.199219 124.238281 111.253906 124.753906 C 106.824219 127.113281 101.652344 127.804688 96.074219 128.121094 C 88.828125 128.523438 80.894531 128.261719 73.078125 130.046875 C 67.441406 131.339844 61.867188 133.667969 56.632812 138.097656 Z M 56.605469 138.039062" fill-rule="evenodd"/><g clip-path="url(#b)"><path fill="#A7D200" d="M 55.082031 121.738281 C 58.273438 110.78125 64.367188 101.523438 76.296875 97.410156 C 80.378906 96 84.660156 95.339844 88.945312 94.9375 C 94.347656 94.449219 99.8125 94.476562 105.214844 93.960938 C 105.933594 93.902344 106.679688 93.816406 107.429688 93.703125 C 99.953125 77.65625 88.140625 61.09375 82.332031 52.410156 C 73.449219 65.695312 50.511719 97.382812 50.511719 117.566406 L 50.511719 119.578125 C 50.511719 123.808594 51.375 127.859375 52.953125 131.597656 C 53.242188 129.730469 53.558594 127.859375 53.960938 126.019531 C 52.410156 118.140625 53.875 108.824219 58.328125 98.101562 C 56.058594 106.929688 54.964844 114.808594 55.054688 121.707031 Z M 55.082031 121.738281" fill-rule="evenodd"/></g><g fill="#071E3D"><g><g><path d="M 9.914062 0 L 15.355469 0 L 15.355469 -25.398438 L 24.820312 -25.398438 L 24.820312 -30.257812 L 0.429688 -30.257812 L 0.429688 -25.398438 L 9.914062 -25.398438 Z M 9.914062 0" transform="translate(141.323 114.964)"/></g></g></g><g fill="#071E3D"><g><g><path d="M 3.105469 0 L 8.160156 0 L 8.160156 -9.035156 C 8.160156 -14.476562 10.707031 -16.746094 13.148438 -16.746094 C 13.984375 -16.746094 14.777344 -16.488281 15.484375 -16.019531 L 17.859375 -20.300781 C 16.832031 -21.351562 15.355469 -21.84375 13.941406 -21.84375 C 11.542969 -21.84375 9.121094 -20.386719 8.203125 -17.796875 L 8.203125 -21.394531 L 3.105469 -21.394531 Z M 3.105469 0" transform="translate(165.493 114.964)"/></g></g></g><g fill="#071E3D"><g><g><path d="M 2.976562 -25.441406 L 8.417969 -25.441406 L 8.417969 -30.257812 L 2.976562 -30.257812 Z M 3.105469 0 L 8.289062 0 L 8.289062 -21.394531 L 3.105469 -21.394531 Z M 3.105469 0" transform="translate(181.849 114.964)"/></g></g></g><g fill="#071E3D"><g><g><path d="M 9.914062 0 L 15.355469 0 L 15.355469 -25.398438 L 24.820312 -25.398438 L 24.820312 -30.257812 L 0.429688 -30.257812 L 0.429688 -25.398438 L 9.914062 -25.398438 Z M 9.914062 0" transform="translate(192.144 114.964)"/></g></g></g><g fill="#071E3D"><g><g><path d="M 12.015625 0.429688 C 15.613281 0.429688 18.460938 -0.835938 20.792969 -3.425781 L 17.195312 -6.574219 C 15.695312 -4.902344 13.984375 -4.304688 12.054688 -4.304688 C 8.695312 -4.304688 7.152344 -6.1875 6.703125 -8.996094 L 21.394531 -8.996094 C 21.5 -9.292969 21.585938 -10.171875 21.585938 -11.050781 C 21.585938 -15.824219 19.167969 -21.84375 11.671875 -21.84375 C 4.433594 -21.84375 1.179688 -16.191406 1.179688 -10.621094 C 1.179688 -4.859375 4.648438 0.429688 12.015625 0.429688 Z M 6.703125 -12.761719 C 7.195312 -15.441406 8.542969 -17.453125 11.628906 -17.453125 C 14.347656 -17.453125 16.105469 -15.824219 16.445312 -12.761719 Z M 6.703125 -12.761719" transform="translate(216.315 114.964)"/></g></g></g><g fill="#071E3D"><g><g><path d="M 11.585938 0.429688 C 15.824219 0.429688 19.167969 -1.925781 20.578125 -5.910156 L 15.824219 -7.710938 C 15.269531 -5.695312 13.640625 -4.304688 11.542969 -4.304688 C 7.902344 -4.304688 6.53125 -7.410156 6.53125 -10.664062 C 6.53125 -13.855469 7.945312 -17.109375 11.542969 -17.109375 C 13.683594 -17.109375 15.269531 -15.65625 15.824219 -13.597656 L 20.792969 -15.527344 C 19.167969 -19.789062 15.78125 -21.84375 11.542969 -21.84375 C 4.5625 -21.84375 1.21875 -16.273438 1.21875 -10.664062 C 1.21875 -4.988281 4.605469 0.429688 11.585938 0.429688 Z M 11.585938 0.429688" transform="translate(238.066 114.964)"/></g></g></g><g fill="#071E3D"><g><g><path d="M 3.148438 0 L 8.457031 0 L 8.457031 -10.835938 C 8.457031 -14.390625 10.042969 -17.109375 13.382812 -17.109375 C 16.53125 -17.109375 17.238281 -14.820312 17.238281 -12.183594 L 17.238281 0 L 22.550781 0 L 22.550781 -12.847656 C 22.550781 -17.324219 20.257812 -21.84375 14.648438 -21.84375 C 12.550781 -21.84375 10.171875 -21.007812 8.457031 -18.910156 L 8.457031 -30.257812 L 3.148438 -30.257812 Z M 3.148438 0" transform="translate(258.468 114.964)"/></g></g></g><g fill="#071E3D"><g><g><path d="M 8.535156 0.222656 C 11.667969 0.222656 14.175781 -1.371094 15.421875 -4.3125 L 12.804688 -5.382812 C 11.957031 -3.265625 10.566406 -2.460938 8.535156 -2.460938 C 5.160156 -2.460938 3.722656 -4.859375 3.722656 -7.992188 C 3.722656 -10.910156 5.160156 -13.304688 8.492188 -13.304688 C 10.542969 -13.304688 12.167969 -12.503906 12.761719 -10.429688 L 15.402344 -11.476562 C 14.128906 -14.421875 11.632812 -16.003906 8.515625 -16.003906 C 3.332031 -16.003906 0.914062 -12.191406 0.914062 -7.878906 C 0.914062 -3.554688 3.355469 0.222656 8.535156 0.222656 Z M 8.535156 0.222656" transform="translate(184.44 139.876)"/></g></g></g><g fill="#071E3D"><g><g><path d="M 2.027344 0.0234375 L 4.859375 0.0234375 L 4.859375 -6.730469 L 6.753906 -6.730469 L 10.632812 0.0234375 L 13.875 0.0234375 L 9.496094 -7.007812 C 11.277344 -7.621094 12.570312 -9.128906 12.570312 -11.109375 C 12.570312 -14.0625 10.0625 -15.746094 7.121094 -15.746094 L 2.027344 -15.746094 Z M 4.882812 -9.039062 L 4.882812 -13.21875 L 7.144531 -13.21875 C 8.757812 -13.21875 9.773438 -12.371094 9.773438 -11.066406 C 9.773438 -9.886719 8.882812 -9.105469 7.378906 -9.039062 Z M 4.882812 -9.039062" transform="translate(202.219 139.876)"/></g></g></g><g fill="#071E3D"><g><g><path d="M 2.027344 0 L 4.746094 0 L 4.746094 -11.777344 L 8.648438 -1.371094 L 11.390625 -1.371094 L 15.289062 -11.777344 L 15.289062 0 L 18.007812 0 L 18.007812 -15.746094 L 14.199219 -15.746094 L 10.019531 -4.546875 L 5.839844 -15.746094 L 2.027344 -15.746094 Z M 2.027344 0" transform="translate(218.17 139.876)"/></g></g></g></svg>